<?xml version="1.0" encoding="utf-8"?>
<svg xmlns="http://www.w3.org/2000/svg"
	xmlns:xlink="http://www.w3.org/1999/xlink"
	width="30px" height="30px" viewBox="0 0 30 30">
<filter filterUnits="objectBoundingBox" x="-43.75" y="-43.75" width="187.50" height="187.50" id="filter0">
<feGaussianBlur in="SourceAlpha" stdDeviation="4.00" result="ogBlurOut"/>
<feFlood flood-color="rgb(227,57,57)" flood-opacity="0.74" result="ogFloodOut"/>
<feComposite in="ogFloodOut" in2="ogBlurOut" operator="in" result="ogRawGlow"/>
<feComposite in="ogRawGlow" in2="SourceAlpha" operator="out" result="outerGlow"/>
<feBlend in="outerGlow" in2="SourceGraphic" mode="normal" result="sourceGraphic"/>
</filter>
<path fillRule="evenodd" d="M 22.95 22.43C 22.85 22.67 22.69 22.85 22.45 22.95 22.32 23 22.19 22.99 22.06 22.99 22.06 22.99 17.83 22.99 17.83 22.99 17.55 22.99 17.3 22.9 17.12 22.72 16.94 22.54 16.83 22.3 16.83 22.03 16.83 21.48 17.27 20.99 17.83 20.99 17.83 20.99 19.65 20.99 19.65 20.99 19.65 20.99 16.4 17.79 16.4 17.79 16.01 17.4 16 16.8 16.39 16.41 16.78 16.02 17.4 16.02 17.79 16.41 17.79 16.41 20.99 19.65 20.99 19.65 20.99 19.65 20.99 17.82 20.99 17.82 20.99 17.27 21.44 16.83 21.99 16.83 22.54 16.83 22.99 17.27 22.99 17.82 22.99 17.82 22.99 22.06 22.99 22.06 22.99 22.19 23 22.31 22.95 22.43ZM 22.01 13.17C 21.73 13.17 21.5 13.06 21.32 12.88 21.14 12.7 20.99 12.45 20.99 12.17 20.99 12.17 20.99 10.35 20.99 10.35 20.99 10.35 17.79 13.6 17.79 13.6 17.4 13.99 16.8 13.99 16.41 13.6 16.02 13.21 16.02 12.6 16.41 12.21 16.41 12.21 19.65 9.01 19.65 9.01 19.65 9.01 17.83 9.01 17.83 9.01 17.27 9.01 16.83 8.56 16.83 8.01 16.83 7.45 17.27 7.01 17.83 7.01 17.83 7.01 22.06 7.01 22.06 7.01 22.19 7.01 22.31 7 22.43 7.05 22.67 7.15 22.85 7.31 22.95 7.55 23 7.68 22.99 7.81 22.99 7.94 22.99 7.94 22.99 12.17 22.99 12.17 22.99 12.73 22.56 13.17 22.01 13.17ZM 12.21 13.59C 12.21 13.59 9.01 10.35 9.01 10.35 9.01 10.35 9.01 12.17 9.01 12.17 9.01 12.73 8.54 13.17 7.99 13.17 7.71 13.17 7.45 13.06 7.26 12.88 7.08 12.7 7.01 12.45 7.01 12.17 7.01 12.17 7.01 7.94 7.01 7.94 7.01 7.81 7 7.68 7.05 7.55 7.15 7.31 7.33 7.15 7.57 7.05 7.69 7 7.81 7.01 7.94 7.01 7.94 7.01 12.17 7.01 12.17 7.01 12.73 7.01 13.17 7.45 13.17 8.01 13.17 8.56 12.73 9.01 12.17 9.01 12.17 9.01 10.35 9.01 10.35 9.01 10.35 9.01 13.6 12.21 13.6 12.21 13.99 12.6 13.99 13.2 13.6 13.59 13.21 13.98 12.6 13.98 12.21 13.59ZM 8.01 16.83C 8.56 16.83 9.01 17.27 9.01 17.82 9.01 17.82 9.01 19.65 9.01 19.65 9.01 19.65 12.21 16.41 12.21 16.41 12.6 16.02 13.2 16.02 13.59 16.41 13.98 16.8 13.98 17.4 13.59 17.79 13.59 17.79 10.35 20.99 10.35 20.99 10.35 20.99 12.17 20.99 12.17 20.99 12.73 20.99 13.17 21.44 13.17 21.99 13.17 22.54 12.73 22.99 12.17 22.99 12.17 22.99 7.94 22.99 7.94 22.99 7.81 22.99 7.69 23 7.56 22.95 7.44 22.9 7.34 22.86 7.25 22.77 7.16 22.68 7.1 22.57 7.05 22.45 7 22.32 7.01 22.19 7.01 22.06 7.01 22.06 7.01 17.82 7.01 17.82 7.01 17.27 7.45 16.83 8.01 16.83Z" fill="rgb(251,161,31)" filter="url(#filter0)"/></svg>