<?xml version="1.0" encoding="utf-8"?>
<svg xmlns="http://www.w3.org/2000/svg"
	xmlns:xlink="http://www.w3.org/1999/xlink"
	width="18px" height="16px" viewBox="0 0 18 16">
<path fillRule="evenodd" d="M 3.56 15.75C 3.56 15.75 3.56 13.87 3.56 13.87 3.56 13.87 14.81 13.87 14.81 13.87 14.81 13.87 14.81 15.75 14.81 15.75 14.81 15.75 17.62 15.75 17.62 15.75 17.62 15.75 17.62 7.31 17.62 7.31 17.62 7.31 15.67 1.7 15.67 1.7 15.48 1.14 14.96 0.75 14.34 0.75 14.34 0.75 4.03 0.75 4.03 0.75 3.42 0.75 2.89 1.14 2.7 1.7 2.7 1.7 0.75 7.31 0.75 7.31 0.75 7.31 0.75 15.75 0.75 15.75 0.75 15.75 3.56 15.75 3.56 15.75ZM 4.97 10.76C 3.51 11.74 1.95 10.17 2.93 8.72 2.97 8.66 3.03 8.6 3.09 8.56 4.55 7.58 6.11 9.14 5.13 10.59 5.09 10.66 5.03 10.71 4.97 10.76ZM 15.28 10.76C 13.83 11.74 12.26 10.17 13.24 8.72 13.29 8.66 13.34 8.6 13.41 8.56 14.86 7.58 16.42 9.14 15.44 10.59 15.4 10.66 15.34 10.71 15.28 10.76ZM 2.62 6.37C 2.62 6.37 4.03 2.16 4.03 2.16 4.03 2.16 14.34 2.16 14.34 2.16 14.34 2.16 15.75 6.37 15.75 6.37 15.75 6.37 2.62 6.37 2.62 6.37Z" fill="rgb(255,255,255)"/></svg>