<?xml version="1.0" encoding="utf-8"?>
<svg xmlns="http://www.w3.org/2000/svg"
	xmlns:xlink="http://www.w3.org/1999/xlink"
	width="20px" height="20px" viewBox="0 0 20 20">
<g><path fillRule="evenodd" d="M 19.99 5.84C 19.99 5.84 14.12 0 14.12 0 14.12 0 5.84 0.01 5.84 0.01 5.84 0.01 0 5.88 0 5.88 0 5.88 0.01 14.16 0.01 14.16 0.01 14.16 5.88 20 5.88 20 5.88 20 14.16 19.99 14.16 19.99 14.16 19.99 20 14.12 20 14.12 20 14.12 19.99 5.84 19.99 5.84Z" fill="rgb(230,37,47)"/><path fillRule="evenodd" d="M 6.68 5.83C 7.06 5.83 7.36 6.14 7.36 6.52 7.36 6.52 7.36 9.04 7.36 9.04 7.36 9.04 7.82 9.04 7.82 9.04 7.82 9.04 7.82 5.15 7.82 5.15 7.82 4.77 8.12 4.46 8.5 4.46 8.88 4.46 9.18 4.77 9.18 5.15 9.18 5.15 9.18 9.04 9.18 9.04 9.18 9.04 9.64 9.04 9.64 9.04 9.64 9.04 9.64 4.69 9.64 4.69 9.64 4.31 9.94 4 10.32 4 10.7 4 11 4.31 11 4.69 11 4.69 11 9.04 11 9.04 11 9.04 11.45 9.04 11.45 9.04 11.45 9.04 11.45 5.83 11.45 5.83 11.45 5.45 11.76 5.15 12.14 5.15 12.51 5.15 12.82 5.45 12.82 5.83 12.82 5.83 12.82 11.29 12.82 11.29 12.82 11.29 14.76 10.17 14.78 10.16 14.86 10.12 14.95 10.09 15.05 10.09 15.19 10.09 15.31 10.14 15.41 10.22 15.43 10.23 16 10.8 16 10.8 16 10.8 12.43 14.45 12.43 14.45 12.09 14.8 11.63 15 11.14 15 11.14 15 7.82 15 7.82 15 6.82 15 6 14.18 6 13.17 6 13.17 6 6.52 6 6.52 6 6.14 6.3 5.83 6.68 5.83Z" fill="rgb(255,255,255)"/></g></svg>