<?xml version="1.0" encoding="utf-8"?>
<svg xmlns="http://www.w3.org/2000/svg"
	xmlns:xlink="http://www.w3.org/1999/xlink"
	width="16px" height="16px" viewBox="0 0 16 16">
<path fillRule="evenodd" d="M 15-0C 15-0 1-0 1-0 0.4-0-0 0.4-0 1-0 1-0 3-0 3-0 3.3 0.1 3.6 0.4 3.8 0.4 3.8 6 8.5 6 8.5 6 8.5 6 15 6 15 6 15.4 6.2 15.8 6.6 15.9 6.7 16 6.9 16 7 16 7.3 16 7.5 15.9 7.7 15.7 7.7 15.7 9.7 13.7 9.7 13.7 9.9 13.5 10 13.3 10 13 10 13 10 8.5 10 8.5 10 8.5 15.6 3.8 15.6 3.8 15.9 3.6 16 3.3 16 3 16 3 16 1 16 1 16 0.4 15.6-0 15-0Z" fill="rgb(47,197,243)"/></svg>