<?xml version="1.0" encoding="utf-8"?>
<svg xmlns="http://www.w3.org/2000/svg"
	xmlns:xlink="http://www.w3.org/1999/xlink"
	width="14px" height="14px" viewBox="0 0 14 14">
<path fillRule="evenodd" d="M 7 14C 4.3 14 1.81 12.42 0.66 9.98 0.66 9.98 2.47 9.12 2.47 9.12 3.29 10.87 5.07 12 7 12 9.76 12 12 9.76 12 7 12 4.24 9.76 2 7 2 5.4 2 3.94 2.76 3.01 4 3.01 4 5 6 5 6 5 6-0 6-0 6-0 6 0.03 1 0.03 1 0.03 1 1.59 2.57 1.59 2.57 2.89 0.97 4.86-0 7-0 10.86-0 14 3.14 14 7 14 10.86 10.86 14 7 14Z" fill="rgb(255,255,255)"/></svg>