<?xml version="1.0" encoding="utf-8"?>
<svg xmlns="http://www.w3.org/2000/svg"
	xmlns:xlink="http://www.w3.org/1999/xlink"
	width="25px" height="16px" viewBox="0 0 25 16">
<path fillRule="evenodd" d="M 20.7 16C 20.7 16 19.08 14.4 19.08 14.4 22.67 10.87 22.67 5.13 19.08 1.6 19.08 1.6 20.7-0 20.7-0 25.18 4.42 25.18 11.58 20.7 16ZM 17.46 12.8C 17.46 12.8 15.84 11.2 15.84 11.2 17.63 9.43 17.63 6.57 15.84 4.8 15.84 4.8 17.46 3.2 17.46 3.2 20.15 5.85 20.15 10.15 17.46 12.8ZM 12.6 10.26C 11.33 10.26 10.3 9.25 10.3 8 10.3 6.75 11.33 5.74 12.6 5.74 13.86 5.74 14.89 6.75 14.89 8 14.89 9.25 13.86 10.26 12.6 10.26ZM 7.53 12.8C 4.85 10.15 4.85 5.85 7.53 3.2 7.53 3.2 9.15 4.8 9.15 4.8 7.36 6.57 7.36 9.43 9.15 11.2 9.15 11.2 7.53 12.8 7.53 12.8ZM 5.91 14.4C 5.91 14.4 4.29 16 4.29 16-0.19 11.58-0.19 4.42 4.29-0 4.29-0 5.91 1.6 5.91 1.6 2.33 5.13 2.33 10.87 5.91 14.4Z" fill="rgb(255,255,255)"/></svg>