<?xml version="1.0" encoding="utf-8"?>
<svg xmlns="http://www.w3.org/2000/svg"
	xmlns:xlink="http://www.w3.org/1999/xlink"
	width="16px" height="16px" viewBox="0 0 16 16">
<path fillRule="evenodd" d="M 12 1C 12 0.4 11.6-0 11-0 11-0 5-0 5-0 4.4-0 4 0.4 4 1 4 1 4 3 4 3 4 3-0 3-0 3-0 3-0 5-0 5-0 5 2 5 2 5 2 5 2 14 2 14 2 15.1 2.9 16 4 16 4 16 12 16 12 16 13.1 16 14 15.1 14 14 14 14 14 5 14 5 14 5 16 5 16 5 16 5 16 3 16 3 16 3 12 3 12 3 12 3 12 1 12 1ZM 6 2C 6 2 10 2 10 2 10 2 10 3 10 3 10 3 6 3 6 3 6 3 6 2 6 2ZM 7 13C 7 13 5 13 5 13 5 13 5 7 5 7 5 7 7 7 7 7 7 7 7 13 7 13ZM 11 13C 11 13 9 13 9 13 9 13 9 7 9 7 9 7 11 7 11 7 11 7 11 13 11 13Z" fill="rgb(255,255,255)"/></svg>